[Header]
FileType HTR
DataType HTRS
FileVersion 1
NumSegments 64
NumFrames 3
DataFrameRate 30
EulerRotationOrder ZYX
CalibrationUnits mm
RotationUnits Degrees
GlobalAxisofGravity Y
BoneLengthAxis Y
ScaleFactor 1.0
[SegmentNames&Hierarchy]
Hips	GLOBAL
Spine	Hips
Spine1	Spine
Spine2	Spine1
Neck	Spine2
Head	Neck
LeftEye	Head
RightEye	Head
LeftShoulder	Spine2
LeftArm	LeftShoulder
LeftForeArm	LeftArm
LeftHand	LeftForeArm
LeftHandThumb1	LeftHand
LeftHandThumb2	LeftHandThumb1
LeftHandThumb3	LeftHandThumb2
LeftHandThumb4	LeftHandThumb3
LeftHandIndex1	LeftHand
LeftHandIndex2	LeftHandIndex1
LeftHandIndex3	LeftHandIndex2
LeftHandIndex4	LeftHandIndex3
LeftHandMiddle1	LeftHand
LeftHandMiddle2	LeftHandMiddle1
LeftHandMiddle3	LeftHandMiddle2
LeftHandMiddle4	LeftHandMiddle3
LeftHandRing1	LeftHand
LeftHandRing2	LeftHandRing1
LeftHandRing3	LeftHandRing2
LeftHandRing4	LeftHandRing3
LeftHandPinky1	LeftHand
LeftHandPinky2	LeftHandPinky1
LeftHandPinky3	LeftHandPinky2
LeftHandPinky4	LeftHandPinky3
RightShoulder	Spine2
RightArm	RightShoulder
RightForeArm	RightArm
RightHand	RightForeArm
RightHandPinky1	RightHand
RightHandPinky2	RightHandPinky1
RightHandPinky3	RightHandPinky2
RightHandPinky4	RightHandPinky3
RightHandRing1	RightHand
RightHandRing2	RightHandRing1
RightHandRing3	RightHandRing2
RightHandRing4	RightHandRing3
RightHandMiddle1	RightHand
RightHandMiddle2	RightHandMiddle1
RightHandMiddle3	RightHandMiddle2
RightHandMiddle4	RightHandMiddle3
RightHandIndex1	RightHand
RightHandIndex2	RightHandIndex1
RightHandIndex3	RightHandIndex2
RightHandIndex4	RightHandIndex3
RightHandThumb1	RightHand
RightHandThumb2	RightHandThumb1
RightHandThumb3	RightHandThumb2
RightHandThumb4	RightHandThumb3
LeftUpLeg	Hips
LeftLeg	LeftUpLeg
LeftFoot	LeftLeg
LeftToeBase	LeftFoot
RightUpLeg	Hips
RightLeg	RightUpLeg
RightFoot	RightLeg
RightToeBase	RightFoot
[BasePosition]
Hips	0	0	0	0	0	0	1
Spine	0	0	0	0	0	0	1
Spine1	0	0	0	0	0	0	1
Spine2	0	0	0	0	0	0	1
Neck	0	0	0	0	0	0	1
Head	0	0	0	0	0	0	1
LeftEye	0	0	0	0	0	0	1
RightEye	0	0	0	0	0	0	1
LeftShoulder	0	0	0	0	0	0	1
LeftArm	0	0	0	0	0	0	1
LeftForeArm	0	0	0	0	0	0	1
LeftHand	0	0	0	0	0	0	1
LeftHandThumb1	0	0	0	0	0	0	1
LeftHandThumb2	0	0	0	0	0	0	1
LeftHandThumb3	0	0	0	0	0	0	1
LeftHandThumb4	0	0	0	0	0	0	1
LeftHandIndex1	0	0	0	0	0	0	1
LeftHandIndex2	0	0	0	0	0	0	1
LeftHandIndex3	0	0	0	0	0	0	1
LeftHandIndex4	0	0	0	0	0	0	1
LeftHandMiddle1	0	0	0	0	0	0	1
LeftHandMiddle2	0	0	0	0	0	0	1
LeftHandMiddle3	0	0	0	0	0	0	1
LeftHandMiddle4	0	0	0	0	0	0	1
LeftHandRing1	0	0	0	0	0	0	1
LeftHandRing2	0	0	0	0	0	0	1
LeftHandRing3	0	0	0	0	0	0	1
LeftHandRing4	0	0	0	0	0	0	1
LeftHandPinky1	0	0	0	0	0	0	1
LeftHandPinky2	0	0	0	0	0	0	1
LeftHandPinky3	0	0	0	0	0	0	1
LeftHandPinky4	0	0	0	0	0	0	1
RightShoulder	0	0	0	0	0	0	1
RightArm	0	0	0	0	0	0	1
RightForeArm	0	0	0	0	0	0	1
RightHand	0	0	0	0	0	0	1
RightHandPinky1	0	0	0	0	0	0	1
RightHandPinky2	0	0	0	0	0	0	1
RightHandPinky3	0	0	0	0	0	0	1
RightHandPinky4	0	0	0	0	0	0	1
RightHandRing1	0	0	0	0	0	0	1
RightHandRing2	0	0	0	0	0	0	1
RightHandRing3	0	0	0	0	0	0	1
RightHandRing4	0	0	0	0	0	0	1
RightHandMiddle1	0	0	0	0	0	0	1
RightHandMiddle2	0	0	0	0	0	0	1
RightHandMiddle3	0	0	0	0	0	0	1
RightHandMiddle4	0	0	0	0	0	0	1
RightHandIndex1	0	0	0	0	0	0	1
RightHandIndex2	0	0	0	0	0	0	1
RightHandIndex3	0	0	0	0	0	0	1
RightHandIndex4	0	0	0	0	0	0	1
RightHandThumb1	0	0	0	0	0	0	1
RightHandThumb2	0	0	0	0	0	0	1
RightHandThumb3	0	0	0	0	0	0	1
RightHandThumb4	0	0	0	0	0	0	1
LeftUpLeg	0	0	0	0	0	0	1
LeftLeg	0	0	0	0	0	0	1
LeftFoot	0	0	0	0	0	0	1
LeftToeBase	0	0	0	0	0	0	1
RightUpLeg	0	0	0	0	0	0	1
RightLeg	0	0	0	0	0	0	1
RightFoot	0	0	0	0	0	0	1
RightToeBase	0	0	0	0	0	0	1
[Hips]
21	61.93939972	1031.915894	-70.5168457	-2.078581095	-75.05840302	-3.429708004	1.0
22	50.76186752	1032.452637	-61.64128113	0.06408797204	-78.4871521	-5.305060387	1.0
23	37.69760513	1030.668579	-51.46587753	2.378291368	-81.53253937	-7.345240116	1.0
[Spine]
21	0	101.8159943	1.315000057	4.056507111	1.059251785	1.869218826	1.0
22	0	101.8159943	1.315000057	4.198424816	0.9720578194	2.283570766	1.0
23	0	101.8159943	1.315000057	4.245635986	0.7747157812	2.902641296	1.0
[Spine1]
21	0	100.8349991	-10.00800037	1.709335923	-0.01723585837	-3.163996935	1.0
22	0	100.8349991	-10.00800037	1.782031655	-0.02885811962	-2.771835804	1.0
23	0	100.8349991	-10.00800037	1.769440532	-0.2345846891	-2.296637058	1.0
[Spine2]
21	0	91	-13.73399925	1.673399329	0.2303438038	0.112826094	1.0
22	0	91	-13.73399925	1.773521662	0.1673863083	-0.009072892368	1.0
23	0	91	-13.73399925	1.783267498	-0.07366814464	-0.08762609959	1.0
[Neck]
21	0	166.7169952	-25.16200066	6.283933163	-3.37452817	0.606773138	1.0
22	0	166.7169952	-25.16200066	5.966572762	-2.632839441	0.2980549335	1.0
23	0	166.7169952	-25.16200066	5.771113396	-1.966614842	0.05624882132	1.0
[Head]
21	0	96.17900085	16.84999847	-4.441272736	-12.90344906	6.083562851	1.0
22	0	96.17900085	16.84999847	-5.176036835	-10.68643188	4.928515911	1.0
23	0	96.17900085	16.84999847	-5.785768032	-8.506422997	3.828816891	1.0
[LeftEye]
21	30.6760006	64.09500122	92.83599854	0	0	0	1.0
22	30.6760006	64.09500122	92.83599854	0	0	0	1.0
23	30.6760006	64.09500122	92.83599854	0	0	0	1.0
[RightEye]
21	-30.6760006	64.09500122	92.83499908	0	0	0	1.0
22	-30.6760006	64.09500122	92.83499908	0	0	0	1.0
23	-30.6760006	64.09500122	92.83499908	0	0	0	1.0
[LeftShoulder]
21	45.70400238	109.4599991	-26.28000069	4.794639111	-16.18349457	-13.92101955	1.0
22	45.70400238	109.4599991	-26.28000069	4.868367195	-16.325737	-14.53466892	1.0
23	45.70400238	109.4599991	-26.28000069	4.946484089	-16.38652802	-15.22740364	1.0
[LeftArm]
21	105.923996	-5.24600029	-22.32099915	14.9715662	0.8534482718	-59.42576599	1.0
22	105.923996	-5.24600029	-22.32099915	14.95901489	0.1618407369	-60.27821732	1.0
23	105.923996	-5.24600029	-22.32099915	14.2796545	-0.4464607835	-61.35890198	1.0
[LeftForeArm]
21	278.414978	-0.0009999999311	0	-5.730680641e-06	-6.643973827	-0.0002130923385	1.0
22	278.414978	-0.0009999999311	0	4.631074262e-06	-6.161068916	-0.0002170528896	1.0
23	278.414978	-0.0009999999311	0	8.401319747e-07	-5.426868439	-0.0002063935826	1.0
[LeftHand]
21	283.2879944	0	0	-29.81944847	5.126224041	-1.692379713	1.0
22	283.2879944	0	0	-29.92119217	3.11604023	-2.198702097	1.0
23	283.2879944	0	0	-29.9759407	1.111425042	-2.891590595	1.0
[LeftHandThumb1]
21	24.6609993	-15.75	26.8239994	-0.4889863729	2.201392412	4.818544865	1.0
22	24.6609993	-15.75	26.8239994	-0.4889863729	2.201392412	4.818544865	1.0
23	24.6609993	-15.75	26.8239994	-0.4889863729	2.201392412	4.818544865	1.0
[LeftHandThumb2]
21	32.29800034	-18.64699936	18.64699936	20.53306198	19.03892899	22.89928246	1.0
22	32.29800034	-18.64699936	18.64699936	20.55569077	19.08106041	22.91788292	1.0
23	32.29800034	-18.64699936	18.64699936	20.66172791	19.19394493	22.93064308	1.0
[LeftHandThumb3]
21	26.52600098	-15.31499958	15.31499958	-13.16471195	5.508356094	7.979088306	1.0
22	26.52600098	-15.31499958	15.31499958	-13.16400146	5.509804726	7.981673241	1.0
23	26.52600098	-15.31499958	15.31499958	-13.16754341	5.501819134	7.983870983	1.0
[LeftHandThumb4]
21	19.54599953	-11.28499985	11.28499985	0	0	0	1.0
22	19.54599953	-11.28499985	11.28499985	0	0	0	1.0
23	19.54599953	-11.28499985	11.28499985	0	0	0	1.0
[LeftHandIndex1]
21	91.09299469	-5.170999527	22.60099792	0.1178199798	-0.8598368168	-8.390378952	1.0
22	91.09299469	-5.170999527	22.60099792	0.1076284871	-0.8627232313	-8.470317841	1.0
23	91.09299469	-5.170999527	22.60099792	0.09211815894	-0.8638517261	-8.606897354	1.0
[LeftHandIndex2]
21	36.76399994	0	0	-0.2659515142	1.742762327	-17.35188293	1.0
22	36.76399994	0	0	-0.2659288347	1.742682576	-17.35097504	1.0
23	36.76399994	0	0	-0.2679274678	1.749080539	-17.41674423	1.0
[LeftHandIndex3]
21	28.83100128	0	0	-0.05707578734	0.8148433566	-8.013792038	1.0
22	28.83100128	0	0	-0.05706488714	0.8147701025	-8.012854576	1.0
23	28.83100128	0	0	-0.05801743641	0.821400106	-8.078611374	1.0
[LeftHandIndex4]
21	23.92700005	0	0	0	0	0	1.0
22	23.92700005	0	0	0	0	0	1.0
23	23.92700005	0	0	0	0	0	1.0
[LeftHandMiddle1]
21	95.33399963	0	0	-0.7977890372	2.715283155	-15.76440525	1.0
22	95.33399963	0	0	-0.8036643863	2.689041138	-15.85219193	1.0
23	95.33399963	0	0	-0.8109000921	2.683954954	-15.95934582	1.0
[LeftHandMiddle2]
21	36.98199844	0	0	-0.2678805292	1.748944283	-17.4151535	1.0
22	36.98199844	0	0	-0.2678787112	1.748938084	-17.41514397	1.0
23	36.98199844	0	0	-0.2684369087	1.750700712	-17.43325615	1.0
[LeftHandMiddle3]
21	29.50900078	0	0	-0.2994606197	1.846588731	-18.42199135	1.0
22	29.50900078	0	0	-0.299472332	1.846585631	-18.42217636	1.0
23	29.50900078	0	0	-0.3000589311	1.848339438	-18.4403286	1.0
[LeftHandMiddle4]
21	28.3390007	0	0	0	0	0	1.0
22	28.3390007	0	0	0	0	0	1.0
23	28.3390007	0	0	0	0	0	1.0
[LeftHandRing1]
21	91.04499817	-0.4390000105	-18.65100098	-1.235142946	3.296811581	-21.83041382	1.0
22	91.04499817	-0.4390000105	-18.65100098	-1.239126682	3.282495975	-21.88286591	1.0
23	91.04499817	-0.4390000105	-18.65100098	-1.247484207	3.280441046	-21.99218941	1.0
[LeftHandRing2]
21	31.54000092	0	0	-0.3853461146	2.086628675	-20.92399406	1.0
22	31.54000092	0	0	-0.3854506314	2.08691597	-20.92707253	1.0
23	31.54000092	0	0	-0.3853764832	2.086734533	-20.92500305	1.0
[LeftHandRing3]
21	29.37700081	0	0	-0.2821546793	1.793812394	-17.8772316	1.0
22	29.37700081	0	0	-0.2822656631	1.794129014	-17.88031387	1.0
23	29.37700081	0	0	-0.2822018564	1.793929338	-17.87829971	1.0
[LeftHandRing4]
21	26.47500038	0	0	0	0	0	1.0
22	26.47500038	0	0	0	0	0	1.0
23	26.47500038	0	0	0	0	0	1.0
[LeftHandPinky1]
21	80.77799988	-4.887000084	-38.06099701	-1.774367452	5.175288677	-27.52429771	1.0
22	80.77799988	-4.887000084	-38.06099701	-1.777817607	5.177282333	-27.55781746	1.0
23	80.77799988	-4.887000084	-38.06099701	-1.807005763	5.070350647	-27.65932846	1.0
[LeftHandPinky2]
21	36	0	0	-0.2681705058	1.749885559	-17.4249649	1.0
22	36	0	0	-0.2680225968	1.749382496	-17.41975975	1.0
23	36	0	0	-0.267994225	1.749285102	-17.41868019	1.0
[LeftHandPinky3]
21	21.14200211	0	0	-0.2412598431	1.661725879	-16.52072525	1.0
22	21.14200211	0	0	-0.2410088629	1.660889149	-16.51208878	1.0
23	21.14200211	0	0	-0.2407935262	1.660132885	-16.50438499	1.0
[LeftHandPinky4]
21	19.75699997	0	0	0	0	0	1.0
22	19.75699997	0	0	0	0	0	1.0
23	19.75699997	0	0	0	0	0	1.0
[RightShoulder]
21	-45.70000076	109.4620056	-26.28000069	4.901610374	13.41515923	14.59669399	1.0
22	-45.70000076	109.4620056	-26.28000069	4.887546062	13.35302162	14.31459904	1.0
23	-45.70000076	109.4620056	-26.28000069	4.807590485	13.87666512	13.86717892	1.0
[RightArm]
21	-105.9280014	-5.248000145	-22.32099915	-7.395898819	-4.280472279	67.85614014	1.0
22	-105.9280014	-5.248000145	-22.32099915	0.07516483963	-3.084989786	67.3835907	1.0
23	-105.9280014	-5.248000145	-22.32099915	7.413636208	-2.352174282	67.17082214	1.0
[RightForeArm]
21	-278.414978	0	0	1.929606697e-06	10.70103645	2.341849495e-06	1.0
22	-278.414978	0	0	8.285473427e-07	9.901168823	1.176261662e-06	1.0
23	-278.414978	0	0	-6.238352853e-06	9.751134872	-1.545740633e-05	1.0
[RightHand]
21	-283.2879944	0	0.0009999999311	4.308538914	7.744395733	-6.574128151	1.0
22	-283.2879944	0	0.0009999999311	-2.989171505	5.583627701	-7.929373264	1.0
23	-283.2879944	0	0.0009999999311	-9.346437454	3.519161463	-8.277394295	1.0
[RightHandPinky1]
21	-80.76699829	-4.885000229	-38.06000137	-1.424301267	-5.157430172	26.02050972	1.0
22	-80.76699829	-4.885000229	-38.06000137	-1.431937218	-5.094974995	26.09551811	1.0
23	-80.76699829	-4.885000229	-38.06000137	-1.432799697	-5.100728989	26.0665741	1.0
[RightHandPinky2]
21	-36	0	0.0009999999311	-0.2118877172	-1.386060238	17.40159798	1.0
22	-36	0	0.0009999999311	-0.2117390484	-1.385611534	17.39563751	1.0
23	-36	0	0.0009999999311	-0.2119868398	-1.386385083	17.40555	1.0
[RightHandPinky3]
21	-21.14200211	0	0	-0.1911495924	-1.318035126	16.50327492	1.0
22	-21.14200211	0	0	-0.1910081953	-1.317534804	16.49689293	1.0
23	-21.14200211	0	0	-0.1912230551	-1.318285823	16.50660324	1.0
[RightHandPinky4]
21	-19.75699997	0	0	0	0	0	1.0
22	-19.75699997	0	0	0	0	0	1.0
23	-19.75699997	0	0	0	0	0	1.0
[RightHandRing1]
21	-91.03599548	-0.4390000105	-18.65100098	-1.030790687	-2.672166109	20.26152802	1.0
22	-91.03599548	-0.4390000105	-18.65100098	-1.030461907	-2.668125153	20.25641632	1.0
23	-91.03599548	-0.4390000105	-18.65100098	-1.027165771	-2.615711212	20.20712471	1.0
[RightHandRing2]
21	-31.54000092	0	0	-0.3042857051	-1.652446151	20.86590004	1.0
22	-31.54000092	0	0	-0.3045372367	-1.653093576	20.87435532	1.0
23	-31.54000092	0	0	-0.3045196235	-1.653056145	20.8737812	1.0
[RightHandRing3]
21	-29.37700081	0	0	-0.2225071043	-1.419531345	17.81557274	1.0
22	-29.37700081	0	0	-0.2227140069	-1.420188904	17.82410812	1.0
23	-29.37700081	0	0	-0.2227004468	-1.420161963	17.82382774	1.0
[RightHandRing4]
21	-26.47500038	0	0	0	0	0	1.0
22	-26.47500038	0	0	0	0	0	1.0
23	-26.47500038	0	0	0	0	0	1.0
[RightHandMiddle1]
21	-95.32500458	0	0	-0.6765044928	-2.335847855	14.58388519	1.0
22	-95.32500458	0	0	-0.6731294394	-2.254095316	14.52860832	1.0
23	-95.32500458	0	0	-0.6648370028	-2.207489491	14.38857079	1.0
[RightHandMiddle2]
21	-36.98199844	0	0	-0.2113826722	-1.384464383	17.36132622	1.0
22	-36.98199844	0	0	-0.2118861377	-1.386063933	17.38197899	1.0
23	-36.98199844	0	0	-0.2114594728	-1.384703517	17.3642025	1.0
[RightHandMiddle3]
21	-29.50900078	0	0	-0.236427024	-1.46416378	18.3693924	1.0
22	-29.50900078	0	0	-0.2369677275	-1.46576786	18.39037704	1.0
23	-29.50900078	0	0	-0.2365184128	-1.464420795	18.37275696	1.0
[RightHandMiddle4]
21	-28.3390007	0	0.0009999999311	0	0	0	1.0
22	-28.3390007	0	0.0009999999311	0	0	0	1.0
23	-28.3390007	0	0.0009999999311	0	0	0	1.0
[RightHandIndex1]
21	-91.08300018	-5.167999744	22.60099792	0.1543533206	1.384296179	6.461081028	1.0
22	-91.08300018	-5.167999744	22.60099792	0.1444824338	1.418834448	6.384010315	1.0
23	-91.08300018	-5.167999744	22.60099792	0.125210762	1.487702966	6.222106457	1.0
[RightHandIndex2]
21	-36.76399994	0	0	-0.2127282917	-1.388787627	17.41722679	1.0
22	-36.76399994	0	0	-0.2130608708	-1.389804721	17.43027687	1.0
23	-36.76399994	0	0	-0.2126636207	-1.388532043	17.41374969	1.0
[RightHandIndex3]
21	-28.83100128	0	0	-0.04588009045	-0.6508873701	8.063092232	1.0
22	-28.83100128	0	0	-0.04601245373	-0.65193367	8.076146126	1.0
23	-28.83100128	0	0	-0.04582447931	-0.6506035328	8.059606552	1.0
[RightHandIndex4]
21	-23.92700005	0	0	0	0	0	1.0
22	-23.92700005	0	0	0	0	0	1.0
23	-23.92700005	0	0	0	0	0	1.0
[RightHandThumb1]
21	-24.64799881	-15.72700024	26.82600021	-1.658462644	-0.289145112	-4.221315384	1.0
22	-24.64799881	-15.72700024	26.82600021	-1.658462644	-0.289145112	-4.221315384	1.0
23	-24.64799881	-15.72700024	26.82600021	-1.658462644	-0.289145112	-4.221315384	1.0
[RightHandThumb2]
21	-32.29800034	-18.64699936	18.64699936	20.82545853	-21.25942039	-22.70881653	1.0
22	-32.29800034	-18.64699936	18.64699936	20.70416641	-21.68212509	-22.81881714	1.0
23	-32.29800034	-18.64699936	18.64699936	20.27685738	-21.77342796	-22.69354439	1.0
[RightHandThumb3]
21	-26.52600098	-15.31399918	15.31399918	-14.3655138	-7.17183876	-11.01114273	1.0
22	-26.52600098	-15.31399918	15.31399918	-14.35361195	-7.249400616	-11.0351429	1.0
23	-26.52600098	-15.31399918	15.31399918	-14.31776619	-7.431515694	-11.01215553	1.0
[RightHandThumb4]
21	-19.54599953	-11.28499985	11.28499985	0	0	0	1.0
22	-19.54599953	-11.28499985	11.28499985	0	0	0	1.0
23	-19.54599953	-11.28499985	11.28499985	0	0	0	1.0
[LeftUpLeg]
21	82.07800293	-67.51699829	-15.99599934	-14.51807404	14.72860622	9.463247299	1.0
22	82.07800293	-67.51699829	-15.99599934	-14.12014389	11.40877438	10.38408947	1.0
23	82.07800293	-67.51699829	-15.99599934	-12.95188141	8.52893734	10.81261349	1.0
[LeftLeg]
21	0	-443.7049866	2.845999956	25.56294441	-6.106112003	-4.932197571	1.0
22	0	-443.7049866	2.845999956	21.04527664	3.229892492	-2.897837162	1.0
23	0	-443.7049866	2.845999956	15.95736694	8.461838722	-1.538910031	1.0
[LeftFoot]
21	0	-444.2789917	-29.8219986	6.26688385	16.42735672	-1.326459765	1.0
22	0	-444.2789917	-29.8219986	5.075327873	8.611069679	-5.522556782	1.0
23	0	-444.2789917	-29.8219986	4.136149883	-0.7549140453	-9.377831459	1.0
[LeftToeBase]
21	0	-87.28699493	107.1060028	-6.921230793	1.832795897e-05	-4.927469035e-06	1.0
22	0	-87.28699493	107.1060028	-9.463848114	0.008358713239	0.09218826145	1.0
23	0	-87.28699493	107.1060028	-11.03055096	-6.55693475e-06	6.993374882e-06	1.0
[RightUpLeg]
21	-82.07800293	-67.51699829	-15.99599934	-3.940579891	-22.6586895	1.983371854	1.0
22	-82.07800293	-67.51699829	-15.99599934	-3.311498165	-20.47322083	2.410901785	1.0
23	-82.07800293	-67.51699829	-15.99599934	-3.696594238	-17.93629265	2.446916819	1.0
[RightLeg]
21	0	-443.7049866	2.861999989	13.62511253	5.376250267	4.232267857	1.0
22	0	-443.7049866	2.861999989	12.65416145	3.478120804	2.559126139	1.0
23	0	-443.7049866	2.861999989	14.04782295	0.8291869164	1.014960408	1.0
[RightFoot]
21	0	-444.2770081	-29.83799934	-4.022542953	-23.22654724	-5.474313736	1.0
22	0	-444.2770081	-29.83799934	-4.690905094	-20.59039879	-3.925544977	1.0
23	0	-444.2770081	-29.83799934	-6.310829639	-17.8565979	-1.875770211	1.0
[RightToeBase]
21	0	-87.28699493	107.1060028	-9.359212875	1.40729685e-06	7.289172572e-07	1.0
22	0	-87.28699493	107.1060028	-8.577933311	-5.352410994e-07	1.606075557e-06	1.0
23	0	-87.28699493	107.1060028	-7.738422394	-9.394531844e-06	1.915784651e-06	1.0
[EndOfFile]
